<svg xmlns="http://www.w3.org/2000/svg" viewBox="71.42 116.82 272.65 61.01">
  <g transform="matrix(1, 0, 0, 1, 71.324062, 116.856494)">
    <g>
      <path class="st0" d="M12.4,27.6c-0.1-1.5-1.1-2.1-3.5-2.1c-2.3,0-3.4,0.5-3.4,1.6c0,0.8,0.6,1.2,2.3,1.2c2.9,0.2,4.8,0.4,6,0.6 c2.7,0.6,4,2,4,4.3c0,3.5-3.1,5.5-8.6,5.5c-5.7,0-8.8-1.8-9.1-5.3h5c0.2,1.6,1.4,2.3,4,2.3c2.4,0,3.9-0.6,3.9-1.7 c0-1-0.8-1.3-3.7-1.5c-3.3-0.2-4-0.3-5.4-0.7c-2.1-0.6-3.3-2-3.3-4c0-3.3,3-5.3,8.3-5.3c3.3,0,5.6,0.7,7.1,2.2 c0.7,0.7,1.1,1.5,1.3,2.9H12.4z" style="fill: rgb(255, 255, 255);"/>
      <path class="st0" d="M26.5,23.2H30v3.4h-3.5v6.3c0,1.3,0.4,1.6,2,1.6h1.4v3.6h-3c-2.4,0-3.6-0.3-4.4-1.2c-0.6-0.7-0.9-1.8-0.9-4.2 v-6.2h-2.2v-3.4h2.2v-4.3h4.8V23.2z" style="fill: rgb(255, 255, 255);"/>
      <path class="st0" d="M38,23.2v2.2c1.3-1.7,2.9-2.6,5.1-2.6c0.3,0,0.5,0,1,0.1v4c-0.7-0.2-1-0.2-1.5-0.2c-2.8,0-4.5,1.7-4.5,4.4v7 h-4.8v-15H38z" style="fill: rgb(255, 255, 255);"/>
      <path class="st0" d="M50.9,31.6c0,2.3,1.7,3.8,4.3,3.8c1.9,0,3-0.6,3.6-2h5.3c-0.5,1.4-1.1,2.2-2.3,3.3c-1.7,1.4-3.8,2.1-6.4,2.1 c-3.2,0-5.7-0.9-7.2-2.4C46.8,35,46,33,46,30.8c0-5,3.5-8.2,9.1-8.2c3.8,0,6.6,1.4,8,4c0.8,1.5,1.1,2.9,1.2,5.1H50.9z M59.1,28.7 c-0.5-2.1-1.8-3.1-4-3.1c-2.2,0-3.6,1-4,3.1H59.1z" style="fill: rgb(255, 255, 255);"/>
      <path class="st0" d="M68.2,28c0.3-1.7,0.7-2.7,1.6-3.5c1.4-1.2,4.1-2,7.2-2c3,0,5.5,0.7,6.8,1.8c0.9,0.8,1.3,2.1,1.3,3.9v8.1 c0,1.1,0,1.2,0.3,1.8h-4.7c-0.2-0.6-0.2-0.8-0.3-1.8c-1.8,1.7-3.6,2.4-6.6,2.4c-2.3,0-4.2-0.5-5.3-1.6c-1-0.9-1.5-2.1-1.5-3.4 c0-1.5,0.8-2.9,2.2-3.6c1.1-0.6,2-0.8,6.1-1.1c4.3-0.4,5-0.6,5-1.6c0-1.2-1.3-1.9-3.6-1.9c-2.4,0-3.5,0.7-3.6,2.5H68.2z M80.3,31 c-1.4,0.5-1.9,0.6-4.1,0.8c-2.1,0.2-2.6,0.3-3.2,0.5c-0.5,0.2-0.9,0.8-0.9,1.4c0,1.2,1.2,2.1,2.8,2.1c1.3,0,2.8-0.5,4-1.3 c1-0.7,1.5-1.5,1.5-2.5V31z" style="fill: rgb(255, 255, 255);"/>
      <path class="st0" d="M94,23.2V25c1.8-1.7,3.4-2.3,5.6-2.3c2.6,0,4.3,1,5.7,3.2c1.9-2.2,3.8-3.2,6.3-3.2c2.3,0,4.3,0.9,5.3,2.5 c0.8,1.2,1.1,2.6,1.1,5.3v7.7h-4.8v-7c0-1.4-0.2-2.4-0.7-3.2c-0.6-1-1.7-1.7-2.9-1.7c-1.2,0-2.3,0.7-2.9,1.7 c-0.5,0.9-0.7,1.8-0.7,3.2v7h-4.8v-7c0-1.4-0.2-2.4-0.7-3.2c-0.6-1-1.7-1.7-2.9-1.7c-1.2,0-2.3,0.7-2.9,1.7 c-0.5,0.9-0.7,1.8-0.7,3.2v7h-4.8v-15H94z" style="fill: rgb(255, 255, 255);"/>
      <path class="st0" d="M137.3,30.9c0,4.4-3.4,7.7-8,7.7c-4.7,0-7.9-3.2-7.9-7.8c0-4.7,3.3-7.9,8-7.9 C134.1,22.9,137.3,26.1,137.3,30.9z M123.3,30.7c0,3.6,2.5,6.1,6.1,6.1c3.4,0,5.9-2.6,5.9-6c0-3.6-2.5-6.2-5.9-6.2 C125.9,24.6,123.3,27.2,123.3,30.7z" style="fill: rgb(255, 255, 255);"/>
      <path class="st0" d="M153.2,38.2V29c0-1.5-0.2-2.3-0.7-2.9c-0.7-0.9-1.9-1.3-3.6-1.3c-1.9,0-3.7,0.7-4.8,1.9 c-0.9,0.9-1.2,1.9-1.2,3.5v8.1h-1.9V23.3h1.9v0.8v2.3c0.7-1.1,1.2-1.6,2-2.2c1.2-0.8,2.9-1.3,4.5-1.3c2.1,0,4,0.7,4.9,1.9 c0.6,0.8,0.9,1.9,0.9,3.8v9.4H153.2z" style="fill: rgb(255, 255, 255);"/>
      <path class="st0" d="M159.6,17.9h1.9v20.3h-1.9V17.9z" style="fill: rgb(255, 255, 255);"/>
      <path class="st0" d="M166,20.1v-2.2h2v2.2H166z M166,38.2V23.3h2v14.9H166z" style="fill: rgb(255, 255, 255);"/>
      <path class="st0" d="M184.7,38.2V29c0-1.5-0.2-2.3-0.7-2.9c-0.7-0.9-1.9-1.3-3.6-1.3c-1.9,0-3.7,0.7-4.8,1.9 c-0.9,0.9-1.2,1.9-1.2,3.5v8.1h-1.9V23.3h1.9v0.8v2.3c0.7-1.1,1.2-1.6,2-2.2c1.2-0.8,2.9-1.3,4.5-1.3c2.1,0,4,0.7,4.9,1.9 c0.6,0.8,0.9,1.9,0.9,3.8v9.4H184.7z" style="fill: rgb(255, 255, 255);"/>
      <path class="st0" d="M205.2,33.6c-0.4,1.3-0.8,2-1.6,2.8c-1.3,1.4-3.5,2.3-5.7,2.3c-4.5,0-7.6-3.2-7.6-7.8c0-4.7,3.2-7.9,7.8-7.9 c2.9,0,5.4,1.4,6.6,3.7c0.8,1.4,1,2.5,1,4.7h-13.6c0.2,2,0.7,3.2,1.8,4.2c1,0.9,2.5,1.4,4,1.4c2.4,0,4.2-1.1,5.2-3.3H205.2z M203.8,29.7c-0.2-1.3-0.4-2-1-2.8c-1-1.5-2.8-2.3-4.8-2.3c-2.2,0-4.2,1.1-5.1,2.9c-0.3,0.6-0.5,1.2-0.6,2.2H203.8z" style="fill: rgb(255, 255, 255);"/>
    </g>
    <g>
      <linearGradient id="SVGID_1_" gradientUnits="userSpaceOnUse" x1="252.0849" y1="3.2579" x2="241.6154" y2="62.633">
        <stop offset="0" style="stop-color:#D5DF46"/>
        <stop offset="0.3505" style="stop-color:#2BB574"/>
        <stop offset="0.7223" style="stop-color:#31BCB5"/>
      </linearGradient>
      <path class="st1" d="M269.8,25L237.1,1.3c-4.6-3.3-11-0.1-11,5.5v9.6c0,4.3,2.5,6.7,3.6,7.6l1.2,0.9c3.8,2.7,3.8,8.3,0,11.1 l-1.2,0.9c-1.1,0.8-3.6,3.3-3.6,7.6v9.6c0,5.6,6.5,8.9,11,5.5L269.8,36C273.7,33.3,273.7,27.7,269.8,25z" style="fill: url(#SVGID_1_);"/>
      <linearGradient id="SVGID_2_" gradientUnits="userSpaceOnUse" x1="244.114" y1="31.264" x2="257.5206" y2="59.5072">
        <stop offset="0" style="stop-color:#31BCB5;stop-opacity:0"/>
        <stop offset="0.6228" style="stop-color:#5A2871;stop-opacity:0.9"/>
      </linearGradient>
      <path class="st2" d="M269.8,25L237.1,1.3c-4.6-3.3-11-0.1-11,5.5v9.6c0,4.3,2.5,6.7,3.6,7.6l1.2,0.9c3.8,2.7,3.8,8.3,0,11.1 l-1.2,0.9c-1.1,0.8-3.6,3.3-3.6,7.6v9.6c0,5.6,6.5,8.9,11,5.5L269.8,36C273.7,33.3,273.7,27.7,269.8,25z" style="fill: url(#SVGID_2_);"/>
      <g>
        <defs>
          <path id="SVGID_3_" d="M269.8,25L237.1,1.3c-4.6-3.3-11-0.1-11,5.5v9.6c0,4.3,2.5,6.7,3.6,7.6l1.2,0.9c3.8,2.7,3.8,8.3,0,11.1 l-1.2,0.9c-1.1,0.8-3.6,3.3-3.6,7.6v9.6c0,5.6,6.5,8.9,11,5.5L269.8,36C273.7,33.3,273.7,27.7,269.8,25z"/>
        </defs>
        <clipPath id="SVGID_4_">
          <path d="M269.8,25L237.1,1.3c-4.6-3.3-11-0.1-11,5.5v9.6c0,4.3,2.5,6.7,3.6,7.6l1.2,0.9c3.8,2.7,3.8,8.3,0,11.1 l-1.2,0.9c-1.1,0.8-3.6,3.3-3.6,7.6v9.6c0,5.6,6.5,8.9,11,5.5L269.8,36C273.7,33.3,273.7,27.7,269.8,25z" transform="matrix(1, 0, 0, 1, 0, 0)" style="overflow: visible;"/>
        </clipPath>
        <g class="st3" style="clip-path: url(#SVGID_4_); opacity: 0.85;">
          <defs>
            <path id="s_4_" class="st4" d="M267.8,23.2c0.2-2.9-0.3-4.7-1.6-6.3c-2.7-3.2-7.6-4.9-14.9-4.9c-11.7,0-19.2,4.3-20.7,11.7 c-0.9,4.5,1.1,7.7,5.5,9c2.8,0.9,4.4,1.1,11.6,1.6c6.3,0.5,7.9,1.1,7.5,3.3c-0.5,2.4-4,3.8-9.4,3.8c-5.7,0-8.1-1.6-7.8-5.2 h-11.2C226,44,232.2,48,244.8,48c12.3,0,20-4.4,21.5-12.2c1-4.9-1.4-8-7.1-9.4c-2.4-0.6-6.5-1-12.9-1.4 c-3.7-0.2-4.9-0.9-4.6-2.8c0.5-2.4,3.2-3.5,8.3-3.5c5.4,0,7.3,1.3,6.9,4.6L267.8,23.2L267.8,23.2z" style="opacity: 0.85;"/>
          </defs>
          <path class="st4" d="M267.8,23.2c0.2-2.9-0.3-4.7-1.6-6.3c-2.7-3.2-7.6-4.9-14.9-4.9c-11.7,0-19.2,4.3-20.7,11.7 c-0.9,4.5,1.1,7.7,5.5,9c2.8,0.9,4.4,1.1,11.6,1.6c6.3,0.5,7.9,1.1,7.5,3.3c-0.5,2.4-4,3.8-9.4,3.8c-5.7,0-8.1-1.6-7.8-5.2 h-11.2C226,44,232.2,48,244.8,48c12.3,0,20-4.4,21.5-12.2c1-4.9-1.4-8-7.1-9.4c-2.4-0.6-6.5-1-12.9-1.4 c-3.7-0.2-4.9-0.9-4.6-2.8c0.5-2.4,3.2-3.5,8.3-3.5c5.4,0,7.3,1.3,6.9,4.6L267.8,23.2L267.8,23.2z" transform="matrix(1, 0, 0, 1, 0, 0)" style="overflow: visible; fill-rule: evenodd; clip-rule: evenodd; fill: rgb(255, 255, 255); opacity: 0.85;"/>
          <clipPath id="s_1_">
            <path class="st4" d="M267.8,23.2c0.2-2.9-0.3-4.7-1.6-6.3c-2.7-3.2-7.6-4.9-14.9-4.9c-11.7,0-19.2,4.3-20.7,11.7 c-0.9,4.5,1.1,7.7,5.5,9c2.8,0.9,4.4,1.1,11.6,1.6c6.3,0.5,7.9,1.1,7.5,3.3c-0.5,2.4-4,3.8-9.4,3.8c-5.7,0-8.1-1.6-7.8-5.2 h-11.2C226,44,232.2,48,244.8,48c12.3,0,20-4.4,21.5-12.2c1-4.9-1.4-8-7.1-9.4c-2.4-0.6-6.5-1-12.9-1.4 c-3.7-0.2-4.9-0.9-4.6-2.8c0.5-2.4,3.2-3.5,8.3-3.5c5.4,0,7.3,1.3,6.9,4.6L267.8,23.2L267.8,23.2z" transform="matrix(1, 0, 0, 1, 0, 0)" style="overflow: visible; opacity: 0.85;"/>
          </clipPath>
          <path class="st5" d="M269.9,25L237.1,1.3c-4.6-3.3-11-0.1-11,5.5v9.6c0,4.3,2.5,6.7,3.6,7.6l1.2,0.9c3.8,2.7,3.8,8.3,0,11.1 l-1.2,0.9c-1.1,0.8-3.6,3.3-3.6,7.6v9.6c0,5.6,6.5,8.9,11,5.5L269.9,36C273.7,33.3,273.7,27.7,269.9,25z" style="clip-path: url(#s_1_); fill: rgb(255, 255, 255);"/>
        </g>
      </g>
      <linearGradient id="SVGID_5_" gradientUnits="userSpaceOnUse" x1="244.114" y1="31.264" x2="257.5206" y2="59.5072">
        <stop offset="0.2662" style="stop-color:#31BCB5;stop-opacity:0"/>
        <stop offset="0.6228" style="stop-color:#5A2871;stop-opacity:0.7"/>
      </linearGradient>
      <path class="st6" d="M269.8,25L237.1,1.3c-4.6-3.3-11-0.1-11,5.5v9.6c0,4.3,2.5,6.7,3.6,7.6l1.2,0.9c3.8,2.7,3.8,8.3,0,11.1 l-1.2,0.9c-1.1,0.8-3.6,3.3-3.6,7.6v9.6c0,5.6,6.5,8.9,11,5.5L269.8,36C273.7,33.3,273.7,27.7,269.8,25z" style="fill: url(#SVGID_5_);"/>
      <radialGradient id="SVGID_6_" cx="226.8368" cy="30.9502" r="18.4311" gradientUnits="userSpaceOnUse">
        <stop offset="0.0515" style="stop-color:#31BCB5"/>
        <stop offset="0.6325" style="stop-color:#31BCB5;stop-opacity:0"/>
      </radialGradient>
      <path class="st7" d="M269.8,25L237.1,1.3c-4.6-3.3-11-0.1-11,5.5v9.6c0,4.3,2.5,6.7,3.6,7.6l1.2,0.9c3.8,2.7,3.8,8.3,0,11.1 l-1.2,0.9c-1.1,0.8-3.6,3.3-3.6,7.6v9.6c0,5.6,6.5,8.9,11,5.5L269.8,36C273.7,33.3,273.7,27.7,269.8,25z" style="fill: url(#SVGID_6_);"/>
      <linearGradient id="SVGID_7_" gradientUnits="userSpaceOnUse" x1="259.181" y1="8.3269" x2="243.1313" y2="25.2669">
        <stop offset="0.0515" style="stop-color:#99CA4D"/>
        <stop offset="0.483" style="stop-color:#99CA4D;stop-opacity:0"/>
      </linearGradient>
      <path class="st8" d="M269.8,25L237.1,1.3c-4.6-3.3-11-0.1-11,5.5v9.6c0,4.3,2.5,6.7,3.6,7.6l1.2,0.9c3.8,2.7,3.8,8.3,0,11.1 l-1.2,0.9c-1.1,0.8-3.6,3.3-3.6,7.6v9.6c0,5.6,6.5,8.9,11,5.5L269.8,36C273.7,33.3,273.7,27.7,269.8,25z" style="fill: url(#SVGID_7_);"/>
      <linearGradient id="SVGID_8_" gradientUnits="userSpaceOnUse" x1="224.0806" y1="30.5038" x2="260.4236" y2="30.5038">
        <stop offset="0.14" style="stop-color:#FFFFFF;stop-opacity:0"/>
        <stop offset="0.6372" style="stop-color:#FFFFFF;stop-opacity:0.2"/>
      </linearGradient>
      <path class="st9" d="M269.3,25.9L238.7,6.3c-4.3-2.8-10.3-0.1-10.3,4.6v8c0,3.5,2.4,5.6,3.4,6.3l1.2,0.7c3.6,2.3,3.6,6.9,0,9.2 l-1.1,0.7c-1,0.7-3.4,2.8-3.4,6.3v8c0,4.7,6,7.4,10.3,4.6l30.6-19.6C272.9,32.8,272.9,28.2,269.3,25.9z" style="fill: url(#SVGID_8_);"/>
    </g>
  </g>
</svg>